M48
; DRILL file {KiCad (6.0.10)} date Sat May 20 13:35:18 2023
; FORMAT={-:-/ absolute / metric / decimal}
; #@! TF.CreationDate,2023-05-20T13:35:18+02:00
; #@! TF.GenerationSoftware,Kicad,Pcbnew,(6.0.10)
; #@! TF.FileFunction,MixedPlating,1,2
FMAT,2
METRIC
; #@! TA.AperFunction,Plated,PTH,ViaDrill
T1C0.500
; #@! TA.AperFunction,Plated,PTH,ComponentDrill
T2C0.600
; #@! TA.AperFunction,Plated,PTH,ComponentDrill
T3C1.200
; #@! TA.AperFunction,Plated,PTH,ComponentDrill
T4C4.550
; #@! TA.AperFunction,NonPlated,NPTH,ComponentDrill
T5C3.200
%
G90
G05
T1
X93.345Y-93.345
X96.52Y-117.475
X99.695Y-114.3
X99.695Y-120.65
X100.143Y-97.79
X100.33Y-135.89
X100.965Y-127.635
X101.6Y-69.215
X101.6Y-71.755
X101.6Y-74.295
X101.6Y-79.375
X101.6Y-81.915
X101.6Y-101.6
X101.6Y-111.125
X104.775Y-66.675
X107.95Y-104.775
X107.95Y-126.365
X109.22Y-92.075
X112.395Y-92.075
X113.665Y-65.405
X114.3Y-118.11
X114.935Y-92.075
X115.57Y-103.505
X116.84Y-90.17
X117.475Y-105.41
X120.015Y-109.855
X120.015Y-113.03
X120.332Y-131.762
X120.412Y-125.968
X120.65Y-107.315
X120.65Y-135.89
X121.92Y-114.935
X124.46Y-69.85
X124.46Y-86.995
X125.095Y-84.455
X126.365Y-88.9
X126.365Y-109.22
X127.0Y-113.03
X128.905Y-92.71
X128.905Y-109.22
X128.905Y-114.935
X129.54Y-68.58
X130.175Y-125.73
X130.175Y-135.89
X131.445Y-71.755
X131.445Y-74.295
X131.445Y-76.835
X131.445Y-86.995
X131.445Y-132.08
X135.255Y-135.255
X137.16Y-118.11
X138.43Y-98.425
X139.7Y-80.01
X141.605Y-85.09
X141.605Y-111.76
X143.51Y-86.995
X145.415Y-70.485
X145.415Y-73.025
X145.415Y-75.565
X145.415Y-78.105
X145.415Y-80.645
X145.415Y-88.9
X145.415Y-124.46
X147.32Y-56.515
X147.32Y-58.42
X147.32Y-90.805
X147.32Y-122.555
X148.59Y-60.325
X148.59Y-62.23
X148.59Y-66.675
X148.59Y-120.65
X149.225Y-92.71
X149.225Y-113.03
X149.225Y-130.81
X150.495Y-64.135
X150.495Y-118.745
X151.13Y-94.615
X151.13Y-113.03
X152.4Y-116.84
X153.035Y-96.52
X160.655Y-120.015
X161.29Y-130.175
X161.29Y-135.255
X162.56Y-67.945
X164.465Y-64.135
X166.37Y-73.025
X167.005Y-97.155
X168.275Y-60.325
X168.275Y-62.865
X168.275Y-74.93
X170.18Y-76.835
X170.18Y-135.89
X174.625Y-116.205
X175.26Y-69.215
X175.26Y-128.27
X175.26Y-135.255
X177.8Y-128.905
X179.07Y-115.57
X179.705Y-129.54
X181.61Y-117.475
X182.88Y-71.12
X184.15Y-118.745
X184.15Y-129.54
X184.785Y-140.97
X185.42Y-90.805
X189.865Y-114.935
X191.77Y-64.77
X192.405Y-100.33
X193.675Y-58.42
X193.675Y-88.9
X193.675Y-94.615
X196.215Y-130.175
X198.755Y-130.175
T2
X93.885Y-69.12
X93.885Y-79.28
X93.98Y-74.2
X96.425Y-69.12
X96.425Y-79.28
X96.52Y-74.2
X96.52Y-95.885
X96.52Y-98.425
X96.52Y-100.965
X96.52Y-103.505
X96.52Y-106.045
X96.52Y-108.585
X96.52Y-111.125
X96.52Y-113.665
X96.52Y-120.65
X96.52Y-123.19
X96.52Y-125.73
X96.52Y-128.27
X96.52Y-130.81
X96.52Y-133.35
X96.52Y-135.89
X96.52Y-138.43
X96.615Y-84.71
X96.615Y-89.71
X98.965Y-69.12
X98.965Y-79.28
X99.06Y-74.2
X111.76Y-95.885
X111.76Y-98.425
X111.76Y-100.965
X111.76Y-103.505
X111.76Y-106.045
X111.76Y-108.585
X111.76Y-111.125
X111.76Y-113.665
X111.76Y-120.65
X111.76Y-123.19
X111.76Y-125.73
X111.76Y-128.27
X111.76Y-130.81
X111.76Y-133.35
X111.76Y-135.89
X111.76Y-138.43
X116.38Y-58.15
X116.38Y-62.15
X122.38Y-58.15
X122.38Y-62.15
X123.19Y-127.27
X123.19Y-129.27
X123.19Y-132.715
X123.19Y-134.715
X127.635Y-127.27
X127.635Y-129.27
X127.635Y-132.715
X127.635Y-134.715
X128.27Y-59.055
X128.27Y-61.595
X130.81Y-59.055
X130.81Y-61.595
X133.35Y-59.055
X133.35Y-61.595
X135.01Y-138.43
X135.89Y-59.055
X135.89Y-61.595
X137.55Y-138.43
X138.43Y-59.055
X138.43Y-61.595
X140.09Y-138.43
X140.97Y-59.055
X140.97Y-61.595
X142.63Y-138.43
X143.51Y-59.055
X143.51Y-61.595
X145.17Y-138.43
X147.71Y-138.43
X150.25Y-138.43
X152.79Y-138.43
X155.33Y-138.43
X155.46Y-86.995
X155.46Y-112.395
X155.575Y-56.515
X155.575Y-81.915
X157.87Y-138.43
X158.0Y-86.995
X158.0Y-112.395
X158.115Y-56.515
X158.115Y-81.915
X160.54Y-86.995
X160.54Y-112.395
X160.655Y-56.515
X160.655Y-81.915
X163.08Y-86.995
X163.08Y-112.395
X163.195Y-56.515
X163.195Y-81.915
X163.83Y-132.08
X163.83Y-134.08
X165.62Y-86.995
X165.62Y-112.395
X165.735Y-56.515
X165.735Y-81.915
X168.16Y-86.995
X168.16Y-112.395
X168.275Y-56.515
X168.275Y-81.915
X168.275Y-132.35
X168.275Y-134.35
X168.91Y-119.095
X168.91Y-125.095
X170.7Y-86.995
X170.7Y-112.395
X170.815Y-56.515
X170.815Y-81.915
X172.72Y-132.35
X172.72Y-134.35
X173.24Y-86.995
X173.24Y-112.395
X173.355Y-56.515
X173.355Y-81.915
X175.78Y-86.995
X175.78Y-112.395
X175.895Y-56.515
X175.895Y-81.915
X178.32Y-86.995
X178.32Y-112.395
X178.435Y-56.515
X178.435Y-81.915
X180.86Y-86.995
X180.86Y-112.395
X180.975Y-56.515
X180.975Y-81.915
X181.07Y-134.62
X181.07Y-137.16
X183.4Y-86.995
X183.4Y-112.395
X183.515Y-56.515
X183.515Y-81.915
X183.61Y-134.62
X183.61Y-137.16
X185.94Y-86.995
X185.94Y-112.395
X186.055Y-56.515
X186.055Y-81.915
X186.15Y-134.62
X186.15Y-137.16
X188.48Y-86.995
X188.48Y-112.395
X188.595Y-56.515
X188.595Y-81.915
X188.69Y-134.62
X188.69Y-137.16
X191.02Y-86.995
X191.02Y-112.395
X191.135Y-56.515
X191.135Y-81.915
X191.23Y-134.62
X191.23Y-137.16
X193.77Y-134.62
X193.77Y-137.16
X196.31Y-119.285
X196.31Y-121.825
X196.31Y-124.365
X196.31Y-126.905
X196.31Y-134.62
X196.31Y-137.16
T4
X99.27Y-60.325
X106.47Y-60.325
T5
X120.015Y-87.63
X134.62Y-121.285
X178.435Y-122.555
X180.975Y-67.31
T3
G00X113.86Y-77.37
M15
G01X113.86Y-73.57
M16
G05
G00X120.26Y-77.37
M15
G01X120.26Y-73.57
M16
G05
T0
M30
